<?xml version="1.0" standalone="no"?>
<!DOCTYPE svg PUBLIC "-//W3C//DTD SVG 20010904//EN"
 "http://www.w3.org/TR/2001/REC-SVG-20010904/DTD/svg10.dtd">
<svg version="1.0" xmlns="http://www.w3.org/2000/svg"
 width="64.000000pt" height="64.000000pt" viewBox="0 0 64.000000 64.000000"
 preserveAspectRatio="xMidYMid meet">

<g transform="translate(0.000000,64.000000) scale(0.100000,-0.100000)"
fill="#ffffff" stroke="none">
<path d="M320 595 c-12 -14 -12 -24 0 -63 7 -26 15 -63 18 -82 l4 -35 -35 45
c-44 58 -114 113 -133 106 -21 -8 -17 -40 7 -62 26 -23 79 -94 79 -106 0 -4
-15 -8 -34 -8 -54 0 -138 -85 -122 -125 2 -7 -2 -16 -10 -19 -19 -7 -18 -23
10 -82 l24 -52 114 -26 c62 -15 121 -29 130 -32 13 -4 30 14 65 67 l48 72 1
91 c1 50 5 133 9 184 6 78 5 92 -8 92 -23 0 -33 -20 -47 -93 -7 -37 -16 -69
-20 -72 -4 -3 -10 17 -14 44 -7 54 -48 163 -63 168 -6 2 -16 -4 -23 -12z m-43
-298 c24 -24 25 -62 3 -90 -31 -39 -72 -36 -114 7 l-32 35 33 37 c30 32 38 35
66 30 17 -4 37 -12 44 -19z"/>
</g>
</svg>
