<?xml version="1.0" standalone="no"?>
<!DOCTYPE svg PUBLIC "-//W3C//DTD SVG 20010904//EN"
 "http://www.w3.org/TR/2001/REC-SVG-20010904/DTD/svg10.dtd">
<svg version="1.0" xmlns="http://www.w3.org/2000/svg"
 width="100.000000pt" height="100.000000pt" viewBox="0 0 100.000000 100.000000"
 preserveAspectRatio="xMidYMid meet">
<metadata>
Created by potrace 1.16, written by Peter Selinger 2001-2019
</metadata>
<g transform="translate(0.000000,100.000000) scale(0.100000,-0.100000)"
fill="#676767" stroke="none">
<path d="M357 942 c-27 -30 -21 -82 14 -125 37 -45 30 -46 -36 -7 -88 52 -155
34 -155 -42 0 -41 7 -48 103 -103 82 -46 94 -65 45 -65 -28 0 -44 -11 -101
-68 -57 -58 -67 -73 -67 -103 0 -19 5 -40 12 -47 9 -9 9 -12 0 -12 -23 0 -12
-41 37 -138 47 -93 51 -98 113 -135 73 -42 121 -47 183 -21 56 23 148 19 234
-11 41 -14 80 -25 88 -25 10 0 13 37 13 181 l0 181 -50 55 -50 55 0 167 c0
189 -4 201 -72 201 -48 0 -68 -25 -69 -86 -1 -45 -2 -47 -10 -19 -5 17 -38 65
-74 108 -61 71 -69 77 -104 77 -24 0 -44 -7 -54 -18z m123 -99 c45 -56 58 -80
77 -151 24 -92 36 -112 64 -112 17 0 19 9 19 109 0 60 3 116 6 125 8 21 40 21
48 0 3 -9 6 -89 6 -178 l0 -162 50 -49 50 -49 0 -138 c0 -76 -2 -138 -3 -138
-2 0 -30 9 -63 21 -72 25 -181 27 -243 5 -60 -22 -76 -20 -138 15 -48 27 -58
40 -93 110 -22 43 -40 81 -40 84 0 3 11 5 25 5 16 0 33 -12 52 -36 50 -66 60
-72 118 -79 l57 -8 51 51 50 50 -33 76 c-19 42 -41 78 -49 80 -9 3 -47 10 -84
17 l-69 11 -47 -46 c-26 -25 -54 -46 -64 -46 -32 0 -17 35 38 90 52 51 57 54
115 58 70 5 73 13 30 74 -22 31 -52 54 -105 82 -51 27 -75 45 -75 58 0 28 27
22 107 -22 49 -27 83 -55 105 -85 38 -52 74 -59 71 -14 -3 58 -25 107 -73 164
-27 33 -50 68 -50 78 0 35 36 15 90 -50z m-54 -408 c36 -5 43 -11 63 -52 l22
-45 -27 -35 c-24 -32 -30 -35 -63 -30 -24 4 -43 15 -56 34 -11 15 -32 40 -46
54 l-26 27 31 31 c17 17 37 29 46 27 8 -3 33 -7 56 -11z"/>
</g>
</svg>
