<?xml version="1.0" encoding="utf-8"?>
<!-- Generator: Adobe Illustrator 26.5.0, SVG Export Plug-In . SVG Version: 6.00 Build 0)  -->
<svg version="1.1" id="Layer_1" xmlns="http://www.w3.org/2000/svg" xmlns:xlink="http://www.w3.org/1999/xlink" x="0px" y="0px"
	 viewBox="0 0 2000 2000" style="enable-background:new 0 0 2000 2000;" xml:space="preserve">
<style type="text/css">
	.st0{display:none;fill:url(#SVGID_1_);}
	.st1{display:none;}
	.st2{display:inline;}
	.st3{fill:#FFFFFF;}
	.st4{display:inline;fill:url(#SVGID_00000164472581772999062110000014511201278310532500_);}
	.st5{display:inline;fill:url(#SVGID_00000035527927294931511270000013245387280877772429_);}
	.st6{font-family:'Trajan-Bold';}
	.st7{font-size:147.5764px;}
	.st8{display:inline;fill:url(#SVGID_00000039855630881659377600000017471600555050712972_);}
	.st9{display:inline;fill:url(#SVGID_00000132051088473778510960000017328644125588753563_);}
	.st10{display:inline;fill:url(#SVGID_00000072240705686297636470000012248199400283253168_);}
	.st11{display:inline;fill:url(#SVGID_00000126287433042691357770000008754026547983052444_);}
	.st12{fill:url(#SVGID_00000000208462014516179190000000171255964907981977_);}
	.st13{fill:url(#SVGID_00000050639050686395127290000000001976270720857238_);}
</style>
<radialGradient id="SVGID_1_" cx="999.9041" cy="999.9982" r="995.0618" gradientTransform="matrix(1.0058 0 0 1.0041 -5.7047 -4.1244)" gradientUnits="userSpaceOnUse">
	<stop  offset="0" style="stop-color:#B5793E"/>
	<stop  offset="1" style="stop-color:#905923"/>
</radialGradient>
<rect class="st0" width="2000" height="2000"/>
<g id="Logo_v1_white_00000012457388951953322750000008466537533935568797_" class="st1">
	<g class="st2">
		<path class="st3" d="M985.9,769.6h-34.3c-2.2,0-2.9-1.2-2-3.6l36.3-100.4v-89.5L870,875.4c-2.3,6.3-4.7,12.1-7.2,17.2
			c-2.3,5.7-5.3,10.6-9,14.9c-6.5,8.4-15.5,13.4-27.1,15.2c-5.1,0.7-10.4,1-15.7,1c-4.1,0-6.2,1.4-6.2,4.3c0,3.3,3.2,5,9.7,5
			c30.5-0.7,50.5-1.2,60-1.5c17.8,0.3,35.8,0.8,54.3,1.5c5.6,0,8.5-1.7,8.5-5c0.3-2.8-2.2-4.2-7.5-4.2H922c-7.5,0-12.8-1.7-15.9-5.2
			c-3-2.9-4.5-6.6-4.5-11.1c0-7.4,2.6-18.1,7.7-32.2l27.4-75.5c0.7-2.7,2.2-4.1,4.7-4.1h44.5V769.6z"/>
		<g>
			<path class="st3" d="M1266.8,1158.4c-4,0-8.7-0.5-14.2-1.5c-3.8-0.7-10.6-3.2-20.4-7.5c-9.8-4.1-22.1-13.5-36.8-28.3
				c-29.2-33.1-66-79.3-110.5-138.6c25.5-21.4,43.4-41.7,53.5-60.9c9.4-18.7,14-37.6,13.7-56.8c-0.3-18.3-4.2-33.9-11.7-46.5
				c-7.5-12.2-15.1-20.7-22.9-25.7c-13.9-9.8-28.9-16.1-44.8-19c-15.9-2.4-32.3-3.6-49-3.6c-2.3,0.1-4.8,0.1-7.1,0.2v24.7
				c7.2,0.3,14.9,1.5,23.1,4.1c8.8,3.1,17.1,8.3,24.9,15.7c8.4,7,15.3,16.9,20.4,29.6c4.8,12.2,7.2,27.8,7.2,46.8
				c-0.3,21.4-3.4,38.5-9.2,51.1c-5.8,12.9-12.8,22.1-20.9,27.8c-4.2,3.3-8.6,5.6-13.2,6.9c-5.5,1.4-13.1,2.1-22.9,2.1
				c-3.2,0-6.3-0.4-9.4-0.6v25.4l14.4,0.3c3.8,0,6.9,1.3,9.2,3.9c4,4.5,10.8,13.7,20.4,27.8c9.4,14.4,19.5,29.4,30.1,44.8
				c26.4,40.2,49.6,66,69.7,77.5c6.5,3.5,13.8,5.9,21.9,7.2c7.8,1.7,18.7,2.5,32.6,2.5h48.5c6.5,0,9.7-1.7,9.7-5
				C1273,1159.8,1271,1158.4,1266.8,1158.4z"/>
		</g>
	</g>
	
		<linearGradient id="SVGID_00000183953863121972533130000004109322295549734069_" gradientUnits="userSpaceOnUse" x1="555.2825" y1="1222.9692" x2="1444.7349" y2="1222.9692">
		<stop  offset="0" style="stop-color:#FFFFFF;stop-opacity:0"/>
		<stop  offset="4.481354e-02" style="stop-color:#FFFFFF;stop-opacity:8.962709e-02"/>
		<stop  offset="0.5" style="stop-color:#FFFFFF"/>
		<stop  offset="0.9552" style="stop-color:#FFFFFF;stop-opacity:8.962709e-02"/>
		<stop  offset="1" style="stop-color:#FFFFFF;stop-opacity:0"/>
	</linearGradient>
	
		<rect x="555.3" y="1221.3" style="display:inline;fill:url(#SVGID_00000183953863121972533130000004109322295549734069_);" width="889.5" height="3.3"/>
	
		<linearGradient id="SVGID_00000159466570866007742010000011906034818270090124_" gradientUnits="userSpaceOnUse" x1="1000.0087" y1="507.7343" x2="1000.0087" y2="1223.4657">
		<stop  offset="0" style="stop-color:#FFFFFF;stop-opacity:0"/>
		<stop  offset="0" style="stop-color:#FFFFFF;stop-opacity:8.526514e-02"/>
		<stop  offset="0.5" style="stop-color:#FFFFFF"/>
		<stop  offset="0.9552" style="stop-color:#FFFFFF"/>
		<stop  offset="1" style="stop-color:#FFFFFF"/>
	</linearGradient>
	<polygon style="display:inline;fill:url(#SVGID_00000159466570866007742010000011906034818270090124_);" points="998.5,1223.5 
		998.5,508.7 1001.5,508.7 1001.5,1223.5 	"/>
	<g class="st2">
		<path class="st3" d="M561.1,1347.6c-0.7,0-1.1,0.4-1.3,1.2l-7.7,21.2c-1.4,3.9-2.2,7-2.2,9c0,1.3,0.4,2.3,1.3,3.1
			c0.9,1,2.4,1.4,4.5,1.4h2.2c1.5,0,2.2,0.4,2.1,1.2c0,0.9-0.8,1.4-2.4,1.4c-5.2-0.2-10.2-0.3-15.2-0.4c-2.7,0.1-8.3,0.2-16.8,0.4
			c-1.8,0-2.7-0.5-2.7-1.4c0-0.8,0.6-1.2,1.7-1.2c1.5,0,3-0.1,4.4-0.3c3.3-0.5,5.8-1.9,7.6-4.3c1-1.2,1.9-2.6,2.5-4.2
			c0.7-1.4,1.4-3.1,2-4.8l35.9-92.7c1.5-4,2.9-6,4-5.9c1.2,0,2.4,1.6,3.6,4.7c8.9,23.2,20.7,53.4,35.4,90.8
			c2.8,6.4,5.2,10.6,7.3,12.7c2.1,2,3.9,3.1,5.3,3.4c2.2,0.4,4.2,0.6,6,0.6c1.2,0,1.8,0.4,1.8,1.2c0,0.6-0.4,0.9-1.1,1
			c-1,0.3-2.8,0.4-5.4,0.4c-5.8,0-14.8-0.1-27-0.3c-2.7,0-4.2-0.4-4.3-1.1c0-0.8,0.7-1.2,2-1.3c1.3-0.4,1.8-1.5,1.3-3.4l-11.4-31.3
			c-0.3-0.7-0.8-1-1.5-1H561.1z M590.3,1340.2c0.7,0,0.9-0.3,0.7-0.9l-12.9-36.5c-0.1-0.8-0.3-1.2-0.7-1.3c-0.4,0.1-0.7,0.5-0.8,1.3
			l-13.1,36.3c-0.2,0.7-0.1,1,0.6,1H590.3z"/>
		<path class="st3" d="M658.7,1317.3c0-19.3-0.1-29.8-0.2-31.3c-0.1-2.6-0.5-4.5-1.3-5.8c-0.8-1.4-2.4-2.3-4.8-2.7
			c-1.4-0.3-3.3-0.4-5.6-0.4c-1.6,0.1-2.4-0.3-2.4-1.3c0-0.8,1-1.3,3.1-1.3c8.9,0.1,15.4,0.2,19.6,0.4c6.9-0.1,13.6-0.2,20.1-0.4
			c4.7,0,9.3,0.3,13.7,1c4.5,0.8,8.7,2.6,12.6,5.3c2.2,1.4,4.3,3.8,6.4,7.2c2.1,3.6,3.2,7.9,3.3,13.1c0.1,5.4-1.2,10.7-3.8,15.9
			c-2.8,5.4-7.8,11.1-15,17.1c12.5,16.6,22.8,29.6,31,38.9c4.1,4.1,7.6,6.8,10.3,7.9c2.7,1.2,4.7,1.9,5.7,2.1c1.5,0.3,2.9,0.4,4,0.4
			c1.2,0,1.7,0.4,1.7,1.2c0,0.9-0.9,1.4-2.7,1.4h-13.6c-3.9,0-7-0.2-9.1-0.7c-2.3-0.4-4.3-1.1-6.1-2c-5.6-3.2-12.1-10.5-19.5-21.7
			c-3-4.3-5.8-8.5-8.4-12.6c-2.7-3.9-4.6-6.5-5.7-7.8c-0.7-0.7-1.5-1.1-2.6-1.1l-12.4-0.3c-0.8,0-1.2,0.4-1.2,1.2v2
			c-0.1,14.3,0.2,24.8,0.8,31.6c0.2,2.2,0.6,4,1.4,5.3c0.7,1.5,2.1,2.4,4.2,2.8c2.5,0.4,4.9,0.6,7,0.6c1.2,0,1.7,0.4,1.7,1.2
			c0,0.9-1,1.4-2.9,1.4c-10.1-0.2-17.1-0.3-21-0.4c-4.3,0.1-10.1,0.2-17.4,0.4c-1.9,0-2.9-0.5-2.9-1.4c-0.1-0.8,0.6-1.2,2.2-1.2
			c2.2,0,3.9-0.2,5.1-0.6c1.4-0.4,2.4-1.3,3-2.8c0.6-1.3,1-3.1,1.2-5.3c0.5-6.8,0.7-17.2,0.7-31.4V1317.3z M675.5,1329
			c-0.1,1.4,0.3,2.3,1.3,2.6c3.4,1,7,1.5,10.9,1.5c2.7,0,4.9-0.2,6.4-0.6c1.3-0.4,2.5-1,3.7-1.9c2.3-1.6,4.2-4.2,5.9-7.8
			c1.6-3.6,2.5-8.3,2.6-14.3c0-5.3-0.7-9.7-2-13.1c-1.4-3.6-3.4-6.3-5.7-8.3c-2.2-2.1-4.5-3.5-7-4.4c-2.6-0.8-5-1.2-7.2-1.2
			c-3.6,0-6.1,0.2-7.5,0.6c-1,0.2-1.4,0.9-1.3,2.1V1329z"/>
		<path class="st3" d="M820.5,1388.1c-19.6,0.2-36-5.2-49-16.1c-6.9-6.5-11.6-13.6-14-21.3c-2.6-7.7-3.8-15.1-3.7-22.3
			c-0.1-5.3,1-11.7,3.3-19.2c2.3-7.4,6.7-14.5,13.4-21.3c5.1-4.9,11.3-8.7,18.6-11.4c7.3-2.8,16.1-4.2,26.6-4.2
			c8.1,0,15,0.5,20.7,1.5c2.8,0.3,5.4,0.7,7.7,1.1c2.3,0.6,4.5,1,6.6,1.4c1.4,0.2,2.2,0.8,2.2,1.7c-0.1,0.7-0.3,3.4-0.7,8.1
			c-0.1,6.3-0.3,11.6-0.5,15.9c0,2.3-0.6,3.4-1.7,3.4c-1.1,0-1.6-1.1-1.5-3.2c-0.1-4.9-2-9.4-5.6-13.5c-5.4-5.8-15-8.9-28.9-9.2
			c-12,0.1-20.9,3.2-26.8,9.2c-5.1,4.9-8.6,10.7-10.5,17.2c-1.9,6.7-2.8,13.7-2.7,21c0.4,17.6,5.6,30.7,15.5,39.5
			c9.5,8.8,19.3,13.1,29.5,13.1c12.2,0.3,21-2.5,26.2-8.3c2.6-3.3,4.2-6.6,4.9-9.7c0.3-2.1,0.9-3.1,1.8-3c0.9,0.1,1.3,0.8,1.3,2.2
			c0,1.3-0.3,4.1-1,8.4c-0.7,4.5-1.4,8.2-2.2,11.2c-0.2,1.1-0.6,1.9-1.2,2.5c-0.5,0.7-1.3,1.3-2.5,1.8c-3,1.1-6.8,1.9-11.6,2.5
			C830,1387.9,825.2,1388.2,820.5,1388.1L820.5,1388.1z"/>
		<path class="st3" d="M960.7,1321.5c0.5,0,0.8-0.3,0.9-1v-3.1c0-19.4-0.1-29.8-0.2-31.4c-0.1-2.6-0.5-4.5-1.3-5.8
			c-0.8-1.4-2.4-2.3-4.8-2.7c-1.4-0.3-3.3-0.4-5.6-0.4c-1.6,0.1-2.4-0.3-2.4-1.3c0-0.8,1-1.3,3-1.3c8.7,0.1,15.6,0.2,20.6,0.4
			c4.9-0.1,10.9-0.2,18-0.4c2,0,3,0.4,3,1.3c0,1-0.9,1.4-2.6,1.3c-1.1,0-2.5,0.1-4.1,0.4c-1.8,0.3-3.1,1.1-3.9,2.4
			c-0.8,1.3-1.3,3.4-1.4,6.1c-0.1,2-0.1,5-0.1,9c-0.1,4-0.1,11.5-0.1,22.3v26c-0.1,14.2,0.1,24.8,0.7,31.7c0.2,2.1,0.7,3.8,1.4,5.1
			c0.7,1.5,2.1,2.4,4.2,2.8c2.4,0.4,4.8,0.6,7.3,0.6c1.5,0,2.3,0.4,2.3,1.2c-0.1,0.9-1,1.4-2.9,1.4c-10.1-0.2-17.5-0.3-22.3-0.4
			c-4.8,0.1-10.8,0.2-17.9,0.4c-2,0-3-0.5-3-1.4c-0.1-0.8,0.6-1.2,2.2-1.2c2.2,0,3.9-0.2,5.1-0.6c1.4-0.4,2.4-1.3,3-2.8
			c0.6-1.3,0.9-3.1,1.1-5.3c0.5-6.8,0.8-17.3,0.8-31.5v-13c-0.1-0.6-0.4-0.9-0.9-0.9h-54.6c-0.6,0-0.8,0.3-0.8,0.9v13
			c-0.1,14.2,0.1,24.8,0.7,31.7c0.2,2.1,0.7,3.8,1.5,5.1c0.7,1.5,2,2.4,4.1,2.8c2.4,0.4,4.8,0.6,7.3,0.6c1.5,0,2.3,0.4,2.3,1.2
			c-0.1,0.9-1,1.4-2.9,1.4c-10.1-0.2-17.5-0.3-22.3-0.4c-4.8,0.1-10.8,0.2-18,0.4c-1.9,0-2.9-0.5-2.9-1.4c-0.1-0.8,0.6-1.2,2.2-1.2
			c2.2,0,3.9-0.2,5.1-0.6c1.4-0.4,2.4-1.3,3-2.8c0.6-1.3,1-3.1,1.2-5.3c0.5-6.8,0.7-17.3,0.7-31.5v-26c0-19.3-0.1-29.8-0.2-31.3
			c-0.1-2.6-0.5-4.5-1.3-5.8c-0.8-1.4-2.4-2.3-4.8-2.7c-1.4-0.3-3.3-0.4-5.6-0.4c-1.6,0.1-2.4-0.3-2.4-1.3c0-0.8,1-1.3,3-1.3
			c8.7,0.1,15.6,0.2,20.6,0.4c4.9-0.1,10.9-0.2,18-0.4c2,0,3,0.4,3,1.3c0,1-0.9,1.4-2.6,1.3c-1,0-2.4,0.1-4.1,0.4
			c-1.8,0.3-3.1,1.1-3.9,2.4c-0.8,1.4-1.3,3.4-1.4,6.1c-0.1,2-0.1,5-0.1,9c-0.1,4-0.1,11.5-0.1,22.3v3.1c0,0.7,0.3,1,0.8,1H960.7z"
			/>
		<path class="st3" d="M1030.8,1317.2c0-19.3-0.1-29.7-0.2-31.3c-0.2-4.9-1.8-7.7-4.9-8.3c-1.6-0.4-3.4-0.6-5.2-0.6
			c-1.5,0.1-2.2-0.4-2.2-1.5c0-0.7,1.1-1.1,3.4-1.1c6.8,0.1,13,0.2,18.6,0.4c4.8-0.1,10.7-0.2,17.5-0.4c1.9,0,2.9,0.4,3,1.1
			c0,1.1-0.8,1.6-2.3,1.5c-1.3,0-2.7,0.1-4.3,0.4c-1.8,0.3-3.1,1.1-3.9,2.4c-0.8,1.3-1.3,3.4-1.4,6.1c-0.1,2-0.1,5-0.1,9
			c-0.1,4-0.1,11.5-0.1,22.3v26c-0.1,14.8,0.1,25.6,0.6,32.4c0.3,2,0.8,3.5,1.5,4.7c0.7,1.4,2.1,2.2,4.2,2.5
			c2.4,0.4,4.8,0.6,7.3,0.6c1.5,0,2.3,0.4,2.3,1.2c-0.1,0.9-1,1.4-2.7,1.4c-10.2-0.2-17.6-0.3-22.3-0.4c-4.8,0.1-10.8,0.2-18,0.4
			c-1.9,0-2.9-0.5-2.9-1.4c-0.1-0.8,0.6-1.2,2.2-1.2c2.2,0,3.9-0.2,5.1-0.6c2.6-0.6,4-3,4.2-7.3c0.5-6.7,0.7-17.5,0.7-32.2V1317.2z"
			/>
		<path class="st3" d="M1084.4,1288.9c-1.5-4-3-6.8-4.5-8.3c-1.6-1.4-3.7-2.4-6.3-3c-2.4-0.4-4.2-0.6-5.6-0.6
			c-1.2,0-1.7-0.4-1.7-1.3c0-0.6,0.4-0.9,1.2-1.1c0.7-0.1,1.6-0.1,2.6-0.1c8.2,0.1,15.1,0.2,20.7,0.4c4.1-0.1,9.9-0.2,17.5-0.4
			c2.1,0,3.2,0.4,3.3,1.3c-0.1,1-0.9,1.4-2.2,1.3c-2.4,0-4.2,0.3-5.6,1c-1,0.7-1.5,1.7-1.5,3.1c0,2.1,1.1,5.9,3.3,11.4l24.6,67.1
			h0.6c10.7-27.8,20.1-52.3,28.1-73.6c0.8-2.2,1.2-4,1.3-5.5c0-1.3-0.6-2.2-1.9-2.8c-1.8-0.5-3.7-0.7-5.7-0.7
			c-1.5,0.1-2.3-0.3-2.4-1.2c0-0.9,1.3-1.4,4-1.4c7.6,0.1,12.6,0.2,15,0.4c1.4,0,3.5-0.1,6.1-0.3c2.6-0.1,5-0.1,7.3-0.1
			c1.9,0,2.9,0.4,3,1.3c0,1-0.7,1.4-2.2,1.3c-0.7,0-1.7,0-3,0.1c-1.3,0.2-2.7,0.7-4,1.6c-0.8,0.5-1.8,1.7-3,3.5
			c-1.2,1.9-2.8,5.2-4.8,9.9c-4.7,11.2-10.4,24.5-17.2,40c-9.4,22-15.7,37-19,45c-1.8,4.1-3.1,7-3.9,8.6c-0.8,1.6-1.7,2.4-2.7,2.4
			c-0.8,0-1.6-0.7-2.2-2.1c-0.8-1.2-1.8-3.5-3.1-6.9L1084.4,1288.9z"/>
		<path class="st3" d="M1204.4,1317.2c0-19.3-0.1-29.7-0.2-31.3c-0.2-4.9-1.8-7.7-4.9-8.3c-1.6-0.4-3.4-0.6-5.2-0.6
			c-1.5,0.1-2.2-0.4-2.2-1.5c0-0.7,1.1-1.1,3.4-1.1c6.8,0.1,13,0.2,18.6,0.4c4.8-0.1,10.7-0.2,17.5-0.4c1.9,0,2.9,0.4,3,1.1
			c0,1.1-0.8,1.6-2.3,1.5c-1.3,0-2.7,0.1-4.3,0.4c-1.8,0.3-3.1,1.1-3.9,2.4c-0.8,1.3-1.3,3.4-1.4,6.1c-0.1,2-0.1,5-0.1,9
			c-0.1,4-0.1,11.5-0.1,22.3v26c-0.1,14.8,0.1,25.6,0.6,32.4c0.3,2,0.8,3.5,1.5,4.7c0.7,1.4,2.1,2.2,4.2,2.5
			c2.4,0.4,4.8,0.6,7.3,0.6c1.5,0,2.3,0.4,2.3,1.2c-0.1,0.9-1,1.4-2.7,1.4c-10.2-0.2-17.6-0.3-22.3-0.4c-4.8,0.1-10.8,0.2-18,0.4
			c-1.9,0-2.9-0.5-2.9-1.4c-0.1-0.8,0.6-1.2,2.2-1.2c2.2,0,3.9-0.2,5.1-0.6c2.6-0.6,4-3,4.2-7.3c0.5-6.7,0.7-17.5,0.7-32.2V1317.2z"
			/>
		<path class="st3" d="M1320.9,1388.1c-19.6,0.2-36-5.2-49-16.1c-6.9-6.5-11.6-13.6-14-21.3c-2.6-7.7-3.8-15.1-3.7-22.3
			c-0.1-5.3,1-11.7,3.3-19.2c2.3-7.4,6.7-14.5,13.4-21.3c5.1-4.9,11.3-8.7,18.6-11.4c7.3-2.8,16.1-4.2,26.6-4.2
			c8.1,0,15,0.5,20.7,1.5c2.8,0.3,5.4,0.7,7.7,1.1c2.3,0.6,4.5,1,6.6,1.4c1.4,0.2,2.2,0.8,2.2,1.7c-0.1,0.7-0.3,3.4-0.7,8.1
			c-0.1,6.3-0.3,11.6-0.5,15.9c0,2.3-0.6,3.4-1.7,3.4c-1.1,0-1.6-1.1-1.5-3.2c-0.1-4.9-2-9.4-5.6-13.5c-5.4-5.8-15-8.9-28.9-9.2
			c-12,0.1-20.9,3.2-26.8,9.2c-5.1,4.9-8.5,10.7-10.5,17.2c-1.9,6.7-2.8,13.7-2.7,21c0.4,17.6,5.6,30.7,15.5,39.5
			c9.5,8.8,19.3,13.1,29.5,13.1c12.2,0.3,20.9-2.5,26.2-8.3c2.6-3.3,4.2-6.6,4.9-9.7c0.3-2.1,0.9-3.1,1.8-3c0.9,0.1,1.3,0.8,1.3,2.2
			c0,1.3-0.3,4.1-1,8.4c-0.7,4.5-1.4,8.2-2.2,11.2c-0.2,1.1-0.6,1.9-1.2,2.5c-0.5,0.7-1.3,1.3-2.5,1.8c-3,1.1-6.8,1.9-11.6,2.5
			C1330.3,1387.9,1325.6,1388.2,1320.9,1388.1L1320.9,1388.1z"/>
		<path class="st3" d="M1397.9,1347.6c-0.7,0-1.1,0.4-1.3,1.2l-7.7,21.2c-1.4,3.9-2.2,7-2.2,9c0,1.3,0.4,2.3,1.3,3.1
			c0.9,1,2.4,1.4,4.5,1.4h2.2c1.5,0,2.2,0.4,2.1,1.2c0,0.9-0.8,1.4-2.4,1.4c-5.2-0.2-10.2-0.3-15.2-0.4c-2.7,0.1-8.3,0.2-16.8,0.4
			c-1.8,0-2.7-0.5-2.7-1.4c0-0.8,0.6-1.2,1.7-1.2c1.5,0,3-0.1,4.4-0.3c3.3-0.5,5.8-1.9,7.6-4.3c1-1.2,1.9-2.6,2.5-4.2
			c0.7-1.4,1.4-3.1,2-4.8l35.9-92.7c1.5-4,2.9-6,4-5.9c1.2,0,2.4,1.6,3.6,4.7c8.9,23.2,20.7,53.4,35.4,90.8
			c2.8,6.4,5.2,10.6,7.3,12.7c2.1,2,3.9,3.1,5.3,3.4c2.2,0.4,4.2,0.6,6,0.6c1.2,0,1.8,0.4,1.8,1.2c0,0.6-0.4,0.9-1.1,1
			c-1,0.3-2.8,0.4-5.4,0.4c-5.8,0-14.8-0.1-27-0.3c-2.7,0-4.2-0.4-4.3-1.1c0-0.8,0.7-1.2,2-1.3c1.3-0.4,1.8-1.5,1.3-3.4l-11.4-31.3
			c-0.3-0.7-0.8-1-1.5-1H1397.9z M1427.1,1340.2c0.7,0,0.9-0.3,0.7-0.9l-12.9-36.5c-0.1-0.8-0.3-1.2-0.7-1.3
			c-0.4,0.1-0.7,0.5-0.8,1.3l-13.1,36.3c-0.2,0.7-0.1,1,0.6,1H1427.1z"/>
	</g>
	<text transform="matrix(1 0 0 1 531.9678 1385.6309)" class="st3 st6 st7">ARCHIVICA</text>
</g>
<g id="Logo_v2_white_00000090285539973520933920000004894213752552423065_" class="st1">
	<g class="st2">
		<path class="st3" d="M614.4,853.3h-34.3c-2.2,0-2.9-1.2-2-3.6l36.3-100.4v-89.5L498.5,959.2c-2.3,6.3-4.7,12.1-7.2,17.2
			c-2.3,5.7-5.3,10.6-9,14.9c-6.5,8.4-15.5,13.4-27.1,15.2c-5.1,0.7-10.4,1-15.7,1c-4.1,0-6.2,1.4-6.2,4.3c0,3.3,3.2,5,9.7,5
			c30.5-0.7,50.5-1.2,60-1.5c17.8,0.3,35.8,0.8,54.3,1.5c5.6,0,8.5-1.7,8.5-5c0.3-2.8-2.2-4.2-7.5-4.2h-7.7
			c-7.5,0-12.8-1.7-15.9-5.2c-3-2.9-4.5-6.6-4.5-11.1c0-7.4,2.6-18.1,7.7-32.2l27.4-75.5c0.7-2.7,2.2-4.1,4.7-4.1h44.5V853.3z"/>
		<g>
			<path class="st3" d="M895.4,1242.1c-4,0-8.7-0.5-14.2-1.5c-3.8-0.7-10.6-3.2-20.4-7.5c-9.8-4.1-22.1-13.5-36.8-28.3
				c-29.2-33.1-66-79.3-110.5-138.6c25.5-21.4,43.4-41.7,53.5-60.9c9.4-18.7,14-37.6,13.7-56.8c-0.3-18.3-4.2-33.9-11.7-46.5
				c-7.5-12.2-15.1-20.7-22.9-25.7c-13.9-9.8-28.9-16.1-44.8-19c-15.9-2.4-32.3-3.6-49-3.6c-2.3,0.1-4.8,0.1-7.1,0.2v24.7
				c7.2,0.3,14.9,1.5,23.1,4.1c8.8,3.1,17.1,8.3,24.9,15.7c8.4,7,15.3,16.9,20.4,29.6c4.8,12.2,7.2,27.8,7.2,46.8
				c-0.3,21.4-3.4,38.5-9.2,51.1c-5.8,12.9-12.8,22.1-20.9,27.8c-4.2,3.3-8.6,5.6-13.2,6.9c-5.5,1.4-13.1,2.1-22.9,2.1
				c-3.2,0-6.3-0.4-9.4-0.6v25.4l14.4,0.3c3.8,0,6.9,1.3,9.2,3.9c4,4.5,10.8,13.7,20.4,27.8c9.4,14.4,19.5,29.4,30.1,44.8
				c26.4,40.2,49.6,66,69.7,77.5c6.5,3.5,13.8,5.9,21.9,7.2c7.8,1.7,18.7,2.5,32.6,2.5h48.5c6.5,0,9.7-1.7,9.7-5
				C901.6,1243.5,899.5,1242.1,895.4,1242.1z"/>
		</g>
	</g>
	
		<linearGradient id="SVGID_00000036951159129807718550000013871735635313811330_" gradientUnits="userSpaceOnUse" x1="344.8231" y1="1306.6875" x2="1655.177" y2="1306.6875">
		<stop  offset="0" style="stop-color:#FFFFFF;stop-opacity:0"/>
		<stop  offset="4.481354e-02" style="stop-color:#FFFFFF;stop-opacity:8.962709e-02"/>
		<stop  offset="0.5" style="stop-color:#FFFFFF"/>
		<stop  offset="0.9552" style="stop-color:#FFFFFF;stop-opacity:8.962709e-02"/>
		<stop  offset="1" style="stop-color:#FFFFFF;stop-opacity:0"/>
	</linearGradient>
	
		<rect x="344.8" y="1305" style="display:inline;fill:url(#SVGID_00000036951159129807718550000013871735635313811330_);" width="1310.4" height="3.3"/>
	
		<linearGradient id="SVGID_00000063602706968725618800000008128152186663859110_" gradientUnits="userSpaceOnUse" x1="628.5611" y1="591.4527" x2="628.5611" y2="1307.1841">
		<stop  offset="0" style="stop-color:#FFFFFF;stop-opacity:0"/>
		<stop  offset="0" style="stop-color:#FFFFFF;stop-opacity:8.526514e-02"/>
		<stop  offset="0.5" style="stop-color:#FFFFFF"/>
		<stop  offset="0.9552" style="stop-color:#FFFFFF"/>
		<stop  offset="1" style="stop-color:#FFFFFF"/>
	</linearGradient>
	<polygon style="display:inline;fill:url(#SVGID_00000063602706968725618800000008128152186663859110_);" points="627.1,1307.2 
		627.1,592.4 630.1,592.4 630.1,1307.2 	"/>
	<g class="st2">
		<path class="st3" d="M986.7,1252.3c-19.6,0.2-36-5.2-49-16.1c-6.9-6.5-11.6-13.6-14-21.3c-2.6-7.7-3.8-15.1-3.7-22.3
			c-0.1-5.3,1-11.7,3.3-19.2c2.3-7.4,6.7-14.5,13.4-21.3c5.1-4.9,11.3-8.7,18.6-11.4c7.3-2.8,16.1-4.2,26.6-4.2
			c8.1,0,15,0.5,20.7,1.5c2.8,0.3,5.4,0.7,7.7,1.1c2.3,0.6,4.5,1,6.6,1.4c1.4,0.2,2.2,0.8,2.2,1.7c-0.1,0.7-0.3,3.4-0.7,8.1
			c-0.1,6.3-0.3,11.6-0.5,15.9c0,2.3-0.6,3.4-1.7,3.4c-1.1,0-1.6-1.1-1.5-3.2c-0.1-4.9-2-9.4-5.6-13.5c-5.4-5.8-15-8.9-28.9-9.2
			c-12,0.1-20.9,3.2-26.8,9.2c-5.1,4.9-8.6,10.7-10.5,17.2c-1.9,6.7-2.8,13.7-2.7,21c0.4,17.6,5.6,30.7,15.5,39.5
			c9.5,8.8,19.3,13.1,29.5,13.1c12.2,0.3,21-2.5,26.2-8.3c2.6-3.3,4.2-6.6,4.9-9.7c0.3-2.1,0.9-3.1,1.8-3c0.9,0.1,1.3,0.8,1.3,2.2
			c0,1.3-0.3,4.1-1,8.4c-0.7,4.5-1.4,8.2-2.2,11.2c-0.2,1.1-0.6,1.9-1.2,2.5c-0.5,0.7-1.3,1.3-2.5,1.8c-3,1.1-6.8,1.9-11.6,2.5
			C996.2,1252.1,991.4,1252.4,986.7,1252.3L986.7,1252.3z"/>
		<path class="st3" d="M1126.9,1185.8c0.5,0,0.8-0.3,0.9-1v-3.1c0-19.4-0.1-29.8-0.2-31.4c-0.1-2.6-0.5-4.5-1.3-5.8
			c-0.8-1.4-2.4-2.3-4.8-2.7c-1.4-0.3-3.3-0.4-5.6-0.4c-1.6,0.1-2.4-0.3-2.4-1.3c0-0.8,1-1.3,3-1.3c8.7,0.1,15.6,0.2,20.6,0.4
			c4.9-0.1,10.9-0.2,18-0.4c2,0,3,0.4,3,1.3c0,1-0.9,1.4-2.6,1.3c-1.1,0-2.5,0.1-4.1,0.4c-1.8,0.3-3.1,1.1-3.9,2.4
			c-0.8,1.3-1.3,3.4-1.4,6.1c-0.1,2-0.1,5-0.1,9c-0.1,4-0.1,11.5-0.1,22.3v26c-0.1,14.2,0.1,24.8,0.7,31.7c0.2,2.1,0.7,3.8,1.4,5.1
			c0.7,1.5,2.1,2.4,4.2,2.8c2.4,0.4,4.8,0.6,7.3,0.6c1.5,0,2.3,0.4,2.3,1.2c-0.1,0.9-1,1.4-2.9,1.4c-10.1-0.2-17.5-0.3-22.3-0.4
			c-4.8,0.1-10.8,0.2-17.9,0.4c-2,0-3-0.5-3-1.4c-0.1-0.8,0.6-1.2,2.2-1.2c2.2,0,3.9-0.2,5.1-0.6c1.4-0.4,2.4-1.3,3-2.8
			c0.6-1.3,0.9-3.1,1.1-5.3c0.5-6.8,0.8-17.3,0.8-31.5v-13c-0.1-0.6-0.4-0.9-0.9-0.9h-54.6c-0.6,0-0.8,0.3-0.8,0.9v13
			c-0.1,14.2,0.1,24.8,0.7,31.7c0.2,2.1,0.7,3.8,1.5,5.1c0.7,1.5,2,2.4,4.1,2.8c2.4,0.4,4.8,0.6,7.3,0.6c1.5,0,2.3,0.4,2.3,1.2
			c-0.1,0.9-1,1.4-2.9,1.4c-10.1-0.2-17.5-0.3-22.3-0.4c-4.8,0.1-10.8,0.2-18,0.4c-1.9,0-2.9-0.5-2.9-1.4c-0.1-0.8,0.6-1.2,2.2-1.2
			c2.2,0,3.9-0.2,5.1-0.6c1.4-0.4,2.4-1.3,3-2.8c0.6-1.3,1-3.1,1.2-5.3c0.5-6.8,0.7-17.3,0.7-31.5v-26c0-19.3-0.1-29.8-0.2-31.3
			c-0.1-2.6-0.5-4.5-1.3-5.8c-0.8-1.4-2.4-2.3-4.8-2.7c-1.4-0.3-3.3-0.4-5.6-0.4c-1.6,0.1-2.4-0.3-2.4-1.3c0-0.8,1-1.3,3-1.3
			c8.7,0.1,15.6,0.2,20.6,0.4c4.9-0.1,10.9-0.2,18-0.4c2,0,3,0.4,3,1.3c0,1-0.9,1.4-2.6,1.3c-1,0-2.4,0.1-4.1,0.4
			c-1.8,0.3-3.1,1.1-3.9,2.4c-0.8,1.4-1.3,3.4-1.4,6.1c-0.1,2-0.1,5-0.1,9c-0.1,4-0.1,11.5-0.1,22.3v3.1c0,0.7,0.3,1,0.8,1H1126.9z"
			/>
		<path class="st3" d="M1197,1181.5c0-19.3-0.1-29.7-0.2-31.3c-0.2-4.9-1.8-7.7-4.9-8.3c-1.6-0.4-3.4-0.6-5.2-0.6
			c-1.5,0.1-2.2-0.4-2.2-1.5c0-0.7,1.1-1.1,3.4-1.1c6.8,0.1,13,0.2,18.6,0.4c4.8-0.1,10.7-0.2,17.5-0.4c1.9,0,2.9,0.4,3,1.1
			c0,1.1-0.8,1.6-2.3,1.5c-1.3,0-2.7,0.1-4.3,0.4c-1.8,0.3-3.1,1.1-3.9,2.4c-0.8,1.3-1.3,3.4-1.4,6.1c-0.1,2-0.1,5-0.1,9
			c-0.1,4-0.1,11.5-0.1,22.3v26c-0.1,14.8,0.1,25.6,0.6,32.4c0.3,2,0.8,3.5,1.5,4.7c0.7,1.4,2.1,2.2,4.2,2.5
			c2.4,0.4,4.8,0.6,7.3,0.6c1.5,0,2.3,0.4,2.3,1.2c-0.1,0.9-1,1.4-2.7,1.4c-10.2-0.2-17.6-0.3-22.3-0.4c-4.8,0.1-10.8,0.2-18,0.4
			c-1.9,0-2.9-0.5-2.9-1.4c-0.1-0.8,0.6-1.2,2.2-1.2c2.2,0,3.9-0.2,5.1-0.6c2.6-0.6,4-3,4.2-7.3c0.5-6.7,0.7-17.5,0.7-32.2V1181.5z"
			/>
		<path class="st3" d="M1250.6,1153.2c-1.5-4-3-6.8-4.5-8.3c-1.6-1.4-3.7-2.4-6.3-3c-2.4-0.4-4.2-0.6-5.6-0.6
			c-1.2,0-1.7-0.4-1.7-1.3c0-0.6,0.4-0.9,1.2-1.1c0.7-0.1,1.6-0.1,2.6-0.1c8.2,0.1,15.1,0.2,20.7,0.4c4.1-0.1,9.9-0.2,17.5-0.4
			c2.1,0,3.2,0.4,3.3,1.3c-0.1,1-0.9,1.4-2.2,1.3c-2.4,0-4.2,0.3-5.6,1c-1,0.7-1.5,1.7-1.5,3.1c0,2.1,1.1,5.9,3.3,11.4l24.6,67.1
			h0.6c10.7-27.8,20.1-52.3,28.1-73.6c0.8-2.2,1.2-4,1.3-5.5c0-1.3-0.6-2.2-1.9-2.8c-1.8-0.5-3.7-0.7-5.7-0.7
			c-1.5,0.1-2.3-0.3-2.4-1.2c0-0.9,1.3-1.4,4-1.4c7.6,0.1,12.6,0.2,15,0.4c1.4,0,3.5-0.1,6.1-0.3c2.6-0.1,5-0.1,7.3-0.1
			c1.9,0,2.9,0.4,3,1.3c0,1-0.7,1.4-2.2,1.3c-0.7,0-1.7,0-3,0.1c-1.3,0.2-2.7,0.7-4,1.6c-0.8,0.5-1.8,1.7-3,3.5
			c-1.2,1.9-2.8,5.2-4.8,9.9c-4.7,11.2-10.4,24.5-17.2,40c-9.4,22-15.7,37-19,45c-1.8,4.1-3.1,7-3.9,8.6c-0.8,1.6-1.7,2.4-2.7,2.4
			c-0.8,0-1.6-0.7-2.2-2.1c-0.8-1.2-1.8-3.5-3.1-6.9L1250.6,1153.2z"/>
		<path class="st3" d="M1370.6,1181.5c0-19.3-0.1-29.7-0.2-31.3c-0.2-4.9-1.8-7.7-4.9-8.3c-1.6-0.4-3.4-0.6-5.2-0.6
			c-1.5,0.1-2.2-0.4-2.2-1.5c0-0.7,1.1-1.1,3.4-1.1c6.8,0.1,13,0.2,18.6,0.4c4.8-0.1,10.7-0.2,17.5-0.4c1.9,0,2.9,0.4,3,1.1
			c0,1.1-0.8,1.6-2.3,1.5c-1.3,0-2.7,0.1-4.3,0.4c-1.8,0.3-3.1,1.1-3.9,2.4c-0.8,1.3-1.3,3.4-1.4,6.1c-0.1,2-0.1,5-0.1,9
			c-0.1,4-0.1,11.5-0.1,22.3v26c-0.1,14.8,0.1,25.6,0.6,32.4c0.3,2,0.8,3.5,1.5,4.7c0.7,1.4,2.1,2.2,4.2,2.5
			c2.4,0.4,4.8,0.6,7.3,0.6c1.5,0,2.3,0.4,2.3,1.2c-0.1,0.9-1,1.4-2.7,1.4c-10.2-0.2-17.6-0.3-22.3-0.4c-4.8,0.1-10.8,0.2-18,0.4
			c-1.9,0-2.9-0.5-2.9-1.4c-0.1-0.8,0.6-1.2,2.2-1.2c2.2,0,3.9-0.2,5.1-0.6c2.6-0.6,4-3,4.2-7.3c0.5-6.7,0.7-17.5,0.7-32.2V1181.5z"
			/>
		<path class="st3" d="M1487.1,1252.3c-19.6,0.2-36-5.2-49-16.1c-6.9-6.5-11.6-13.6-14-21.3c-2.6-7.7-3.8-15.1-3.7-22.3
			c-0.1-5.3,1-11.7,3.3-19.2c2.3-7.4,6.7-14.5,13.4-21.3c5.1-4.9,11.3-8.7,18.6-11.4c7.3-2.8,16.1-4.2,26.6-4.2
			c8.1,0,15,0.5,20.7,1.5c2.8,0.3,5.4,0.7,7.7,1.1c2.3,0.6,4.5,1,6.6,1.4c1.4,0.2,2.2,0.8,2.2,1.7c-0.1,0.7-0.3,3.4-0.7,8.1
			c-0.1,6.3-0.3,11.6-0.5,15.9c0,2.3-0.6,3.4-1.7,3.4c-1.1,0-1.6-1.1-1.5-3.2c-0.1-4.9-2-9.4-5.6-13.5c-5.4-5.8-15-8.9-28.9-9.2
			c-12,0.1-20.9,3.2-26.8,9.2c-5.1,4.9-8.5,10.7-10.5,17.2c-1.9,6.7-2.8,13.7-2.7,21c0.4,17.6,5.6,30.7,15.5,39.5
			c9.5,8.8,19.3,13.1,29.5,13.1c12.2,0.3,20.9-2.5,26.2-8.3c2.6-3.3,4.2-6.6,4.9-9.7c0.3-2.1,0.9-3.1,1.8-3c0.9,0.1,1.3,0.8,1.3,2.2
			c0,1.3-0.3,4.1-1,8.4c-0.7,4.5-1.4,8.2-2.2,11.2c-0.2,1.1-0.6,1.9-1.2,2.5c-0.5,0.7-1.3,1.3-2.5,1.8c-3,1.1-6.8,1.9-11.6,2.5
			C1496.5,1252.1,1491.8,1252.4,1487.1,1252.3L1487.1,1252.3z"/>
		<path class="st3" d="M1564.1,1211.8c-0.7,0-1.1,0.4-1.3,1.2l-7.7,21.2c-1.4,3.9-2.2,7-2.2,9c0,1.3,0.4,2.3,1.3,3.1
			c0.9,1,2.4,1.4,4.5,1.4h2.2c1.5,0,2.2,0.4,2.1,1.2c0,0.9-0.8,1.4-2.4,1.4c-5.2-0.2-10.2-0.3-15.2-0.4c-2.7,0.1-8.3,0.2-16.8,0.4
			c-1.8,0-2.7-0.5-2.7-1.4c0-0.8,0.6-1.2,1.7-1.2c1.5,0,3-0.1,4.4-0.3c3.3-0.5,5.8-1.9,7.6-4.3c1-1.2,1.9-2.6,2.5-4.2
			c0.7-1.4,1.4-3.1,2-4.8l35.9-92.7c1.5-4,2.9-6,4-5.9c1.2,0,2.4,1.6,3.6,4.7c8.9,23.2,20.7,53.4,35.4,90.8
			c2.8,6.4,5.2,10.6,7.3,12.7c2.1,2,3.9,3.1,5.3,3.4c2.2,0.4,4.2,0.6,6,0.6c1.2,0,1.8,0.4,1.8,1.2c0,0.6-0.4,0.9-1.1,1
			c-1,0.3-2.8,0.4-5.4,0.4c-5.8,0-14.8-0.1-27-0.3c-2.7,0-4.2-0.4-4.3-1.1c0-0.8,0.7-1.2,2-1.3c1.3-0.4,1.8-1.5,1.3-3.4l-11.4-31.3
			c-0.3-0.7-0.8-1-1.5-1H1564.1z M1593.2,1204.5c0.7,0,0.9-0.3,0.7-0.9l-12.9-36.5c-0.1-0.8-0.3-1.2-0.7-1.3
			c-0.4,0.1-0.7,0.5-0.8,1.3l-13.1,36.3c-0.2,0.7-0.1,1,0.6,1H1593.2z"/>
	</g>
</g>
<g id="Logo_v1_black_00000166668639427332907150000000505059291738750610_" class="st1">
	<g class="st2">
		<path d="M985.9,769.6h-34.3c-2.2,0-2.9-1.2-2-3.6l36.3-100.4v-89.5L870,875.4c-2.3,6.3-4.7,12.1-7.2,17.2
			c-2.3,5.7-5.3,10.6-9,14.9c-6.5,8.4-15.5,13.4-27.1,15.2c-5.1,0.7-10.4,1-15.7,1c-4.1,0-6.2,1.4-6.2,4.3c0,3.3,3.2,5,9.7,5
			c30.5-0.7,50.5-1.2,60-1.5c17.8,0.3,35.8,0.8,54.3,1.5c5.6,0,8.5-1.7,8.5-5c0.3-2.8-2.2-4.2-7.5-4.2H922c-7.5,0-12.8-1.7-15.9-5.2
			c-3-2.9-4.5-6.6-4.5-11.1c0-7.4,2.6-18.1,7.7-32.2l27.4-75.5c0.7-2.7,2.2-4.1,4.7-4.1h44.5V769.6z"/>
		<g>
			<path d="M1266.8,1158.4c-4,0-8.7-0.5-14.2-1.5c-3.8-0.7-10.6-3.2-20.4-7.5c-9.8-4.1-22.1-13.5-36.8-28.3
				c-29.2-33.1-66-79.3-110.5-138.6c25.5-21.4,43.4-41.7,53.5-60.9c9.4-18.7,14-37.6,13.7-56.8c-0.3-18.3-4.2-33.9-11.7-46.5
				c-7.5-12.2-15.1-20.7-22.9-25.7c-13.9-9.8-28.9-16.1-44.8-19c-15.9-2.4-32.3-3.6-49-3.6c-2.3,0.1-4.8,0.1-7.1,0.2v24.7
				c7.2,0.3,14.9,1.5,23.1,4.1c8.8,3.1,17.1,8.3,24.9,15.7c8.4,7,15.3,16.9,20.4,29.6c4.8,12.2,7.2,27.8,7.2,46.8
				c-0.3,21.4-3.4,38.5-9.2,51.1c-5.8,12.9-12.8,22.1-20.9,27.8c-4.2,3.3-8.6,5.6-13.2,6.9c-5.5,1.4-13.1,2.1-22.9,2.1
				c-3.2,0-6.3-0.4-9.4-0.6v25.4l14.4,0.3c3.8,0,6.9,1.3,9.2,3.9c4,4.5,10.8,13.7,20.4,27.8c9.4,14.4,19.5,29.4,30.1,44.8
				c26.4,40.2,49.6,66,69.7,77.5c6.5,3.5,13.8,5.9,21.9,7.2c7.8,1.7,18.7,2.5,32.6,2.5h48.5c6.5,0,9.7-1.7,9.7-5
				C1273,1159.8,1271,1158.4,1266.8,1158.4z"/>
		</g>
	</g>
	
		<linearGradient id="SVGID_00000075849705758375692650000013771444081782075012_" gradientUnits="userSpaceOnUse" x1="555.2825" y1="1222.9692" x2="1444.7349" y2="1222.9692">
		<stop  offset="0" style="stop-color:#231F20;stop-opacity:0"/>
		<stop  offset="4.481354e-02" style="stop-color:#231F20;stop-opacity:8.962709e-02"/>
		<stop  offset="0.5" style="stop-color:#231F20"/>
		<stop  offset="0.9552" style="stop-color:#231F20;stop-opacity:8.962709e-02"/>
		<stop  offset="1" style="stop-color:#231F20;stop-opacity:0"/>
	</linearGradient>
	
		<rect x="555.3" y="1221.3" style="display:inline;fill:url(#SVGID_00000075849705758375692650000013771444081782075012_);" width="889.5" height="3.3"/>
	
		<linearGradient id="SVGID_00000157277111449100037830000009932110742671349691_" gradientUnits="userSpaceOnUse" x1="1000.0087" y1="507.7343" x2="1000.0087" y2="1223.4657">
		<stop  offset="0" style="stop-color:#FFFFFF;stop-opacity:0"/>
		<stop  offset="0" style="stop-color:#AFAEAE;stop-opacity:3.036891e-02"/>
		<stop  offset="0" style="stop-color:#231F20;stop-opacity:8.526514e-02"/>
		<stop  offset="0.5" style="stop-color:#231F20"/>
		<stop  offset="0.9552" style="stop-color:#231F20"/>
		<stop  offset="1" style="stop-color:#231F20"/>
	</linearGradient>
	<polygon style="display:inline;fill:url(#SVGID_00000157277111449100037830000009932110742671349691_);" points="998.5,1223.5 
		998.5,508.7 1001.5,508.7 1001.5,1223.5 	"/>
	<g class="st2">
		<path d="M561.1,1347.6c-0.7,0-1.1,0.4-1.3,1.2l-7.7,21.2c-1.4,3.9-2.2,7-2.2,9c0,1.3,0.4,2.3,1.3,3.1c0.9,1,2.4,1.4,4.5,1.4h2.2
			c1.5,0,2.2,0.4,2.1,1.2c0,0.9-0.8,1.4-2.4,1.4c-5.2-0.2-10.2-0.3-15.2-0.4c-2.7,0.1-8.3,0.2-16.8,0.4c-1.8,0-2.7-0.5-2.7-1.4
			c0-0.8,0.6-1.2,1.7-1.2c1.5,0,3-0.1,4.4-0.3c3.3-0.5,5.8-1.9,7.6-4.3c1-1.2,1.9-2.6,2.5-4.2c0.7-1.4,1.4-3.1,2-4.8l35.9-92.7
			c1.5-4,2.9-6,4-5.9c1.2,0,2.4,1.6,3.6,4.7c8.9,23.2,20.7,53.4,35.4,90.8c2.8,6.4,5.2,10.6,7.3,12.7c2.1,2,3.9,3.1,5.3,3.4
			c2.2,0.4,4.2,0.6,6,0.6c1.2,0,1.8,0.4,1.8,1.2c0,0.6-0.4,0.9-1.1,1c-1,0.3-2.8,0.4-5.4,0.4c-5.8,0-14.8-0.1-27-0.3
			c-2.7,0-4.2-0.4-4.3-1.1c0-0.8,0.7-1.2,2-1.3c1.3-0.4,1.8-1.5,1.3-3.4l-11.4-31.3c-0.3-0.7-0.8-1-1.5-1H561.1z M590.3,1340.2
			c0.7,0,0.9-0.3,0.7-0.9l-12.9-36.5c-0.1-0.8-0.3-1.2-0.7-1.3c-0.4,0.1-0.7,0.5-0.8,1.3l-13.1,36.3c-0.2,0.7-0.1,1,0.6,1H590.3z"/>
		<path d="M658.7,1317.3c0-19.3-0.1-29.8-0.2-31.3c-0.1-2.6-0.5-4.5-1.3-5.8c-0.8-1.4-2.4-2.3-4.8-2.7c-1.4-0.3-3.3-0.4-5.6-0.4
			c-1.6,0.1-2.4-0.3-2.4-1.3c0-0.8,1-1.3,3.1-1.3c8.9,0.1,15.4,0.2,19.6,0.4c6.9-0.1,13.6-0.2,20.1-0.4c4.7,0,9.3,0.3,13.7,1
			c4.5,0.8,8.7,2.6,12.6,5.3c2.2,1.4,4.3,3.8,6.4,7.2c2.1,3.6,3.2,7.9,3.3,13.1c0.1,5.4-1.2,10.7-3.8,15.9
			c-2.8,5.4-7.8,11.1-15,17.1c12.5,16.6,22.8,29.6,31,38.9c4.1,4.1,7.6,6.8,10.3,7.9c2.7,1.2,4.7,1.9,5.7,2.1c1.5,0.3,2.9,0.4,4,0.4
			c1.2,0,1.7,0.4,1.7,1.2c0,0.9-0.9,1.4-2.7,1.4h-13.6c-3.9,0-7-0.2-9.1-0.7c-2.3-0.4-4.3-1.1-6.1-2c-5.6-3.2-12.1-10.5-19.5-21.7
			c-3-4.3-5.8-8.5-8.4-12.6c-2.7-3.9-4.6-6.5-5.7-7.8c-0.7-0.7-1.5-1.1-2.6-1.1l-12.4-0.3c-0.8,0-1.2,0.4-1.2,1.2v2
			c-0.1,14.3,0.2,24.8,0.8,31.6c0.2,2.2,0.6,4,1.4,5.3c0.7,1.5,2.1,2.4,4.2,2.8c2.5,0.4,4.9,0.6,7,0.6c1.2,0,1.7,0.4,1.7,1.2
			c0,0.9-1,1.4-2.9,1.4c-10.1-0.2-17.1-0.3-21-0.4c-4.3,0.1-10.1,0.2-17.4,0.4c-1.9,0-2.9-0.5-2.9-1.4c-0.1-0.8,0.6-1.2,2.2-1.2
			c2.2,0,3.9-0.2,5.1-0.6c1.4-0.4,2.4-1.3,3-2.8c0.6-1.3,1-3.1,1.2-5.3c0.5-6.8,0.7-17.2,0.7-31.4V1317.3z M675.5,1329
			c-0.1,1.4,0.3,2.3,1.3,2.6c3.4,1,7,1.5,10.9,1.5c2.7,0,4.9-0.2,6.4-0.6c1.3-0.4,2.5-1,3.7-1.9c2.3-1.6,4.2-4.2,5.9-7.8
			c1.6-3.6,2.5-8.3,2.6-14.3c0-5.3-0.7-9.7-2-13.1c-1.4-3.6-3.4-6.3-5.7-8.3c-2.2-2.1-4.5-3.5-7-4.4c-2.6-0.8-5-1.2-7.2-1.2
			c-3.6,0-6.1,0.2-7.5,0.6c-1,0.2-1.4,0.9-1.3,2.1V1329z"/>
		<path d="M820.5,1388.1c-19.6,0.2-36-5.2-49-16.1c-6.9-6.5-11.6-13.6-14-21.3c-2.6-7.7-3.8-15.1-3.7-22.3c-0.1-5.3,1-11.7,3.3-19.2
			c2.3-7.4,6.7-14.5,13.4-21.3c5.1-4.9,11.3-8.7,18.6-11.4c7.3-2.8,16.1-4.2,26.6-4.2c8.1,0,15,0.5,20.7,1.5
			c2.8,0.3,5.4,0.7,7.7,1.1c2.3,0.6,4.5,1,6.6,1.4c1.4,0.2,2.2,0.8,2.2,1.7c-0.1,0.7-0.3,3.4-0.7,8.1c-0.1,6.3-0.3,11.6-0.5,15.9
			c0,2.3-0.6,3.4-1.7,3.4c-1.1,0-1.6-1.1-1.5-3.2c-0.1-4.9-2-9.4-5.6-13.5c-5.4-5.8-15-8.9-28.9-9.2c-12,0.1-20.9,3.2-26.8,9.2
			c-5.1,4.9-8.6,10.7-10.5,17.2c-1.9,6.7-2.8,13.7-2.7,21c0.4,17.6,5.6,30.7,15.5,39.5c9.5,8.8,19.3,13.1,29.5,13.1
			c12.2,0.3,21-2.5,26.2-8.3c2.6-3.3,4.2-6.6,4.9-9.7c0.3-2.1,0.9-3.1,1.8-3c0.9,0.1,1.3,0.8,1.3,2.2c0,1.3-0.3,4.1-1,8.4
			c-0.7,4.5-1.4,8.2-2.2,11.2c-0.2,1.1-0.6,1.9-1.2,2.5c-0.5,0.7-1.3,1.3-2.5,1.8c-3,1.1-6.8,1.9-11.6,2.5
			C830,1387.9,825.2,1388.2,820.5,1388.1L820.5,1388.1z"/>
		<path d="M960.7,1321.5c0.5,0,0.8-0.3,0.9-1v-3.1c0-19.4-0.1-29.8-0.2-31.4c-0.1-2.6-0.5-4.5-1.3-5.8c-0.8-1.4-2.4-2.3-4.8-2.7
			c-1.4-0.3-3.3-0.4-5.6-0.4c-1.6,0.1-2.4-0.3-2.4-1.3c0-0.8,1-1.3,3-1.3c8.7,0.1,15.6,0.2,20.6,0.4c4.9-0.1,10.9-0.2,18-0.4
			c2,0,3,0.4,3,1.3c0,1-0.9,1.4-2.6,1.3c-1.1,0-2.5,0.1-4.1,0.4c-1.8,0.3-3.1,1.1-3.9,2.4c-0.8,1.3-1.3,3.4-1.4,6.1
			c-0.1,2-0.1,5-0.1,9c-0.1,4-0.1,11.5-0.1,22.3v26c-0.1,14.2,0.1,24.8,0.7,31.7c0.2,2.1,0.7,3.8,1.4,5.1c0.7,1.5,2.1,2.4,4.2,2.8
			c2.4,0.4,4.8,0.6,7.3,0.6c1.5,0,2.3,0.4,2.3,1.2c-0.1,0.9-1,1.4-2.9,1.4c-10.1-0.2-17.5-0.3-22.3-0.4c-4.8,0.1-10.8,0.2-17.9,0.4
			c-2,0-3-0.5-3-1.4c-0.1-0.8,0.6-1.2,2.2-1.2c2.2,0,3.9-0.2,5.1-0.6c1.4-0.4,2.4-1.3,3-2.8c0.6-1.3,0.9-3.1,1.1-5.3
			c0.5-6.8,0.8-17.3,0.8-31.5v-13c-0.1-0.6-0.4-0.9-0.9-0.9h-54.6c-0.6,0-0.8,0.3-0.8,0.9v13c-0.1,14.2,0.1,24.8,0.7,31.7
			c0.2,2.1,0.7,3.8,1.5,5.1c0.7,1.5,2,2.4,4.1,2.8c2.4,0.4,4.8,0.6,7.3,0.6c1.5,0,2.3,0.4,2.3,1.2c-0.1,0.9-1,1.4-2.9,1.4
			c-10.1-0.2-17.5-0.3-22.3-0.4c-4.8,0.1-10.8,0.2-18,0.4c-1.9,0-2.9-0.5-2.9-1.4c-0.1-0.8,0.6-1.2,2.2-1.2c2.2,0,3.9-0.2,5.1-0.6
			c1.4-0.4,2.4-1.3,3-2.8c0.6-1.3,1-3.1,1.2-5.3c0.5-6.8,0.7-17.3,0.7-31.5v-26c0-19.3-0.1-29.8-0.2-31.3c-0.1-2.6-0.5-4.5-1.3-5.8
			c-0.8-1.4-2.4-2.3-4.8-2.7c-1.4-0.3-3.3-0.4-5.6-0.4c-1.6,0.1-2.4-0.3-2.4-1.3c0-0.8,1-1.3,3-1.3c8.7,0.1,15.6,0.2,20.6,0.4
			c4.9-0.1,10.9-0.2,18-0.4c2,0,3,0.4,3,1.3c0,1-0.9,1.4-2.6,1.3c-1,0-2.4,0.1-4.1,0.4c-1.8,0.3-3.1,1.1-3.9,2.4
			c-0.8,1.4-1.3,3.4-1.4,6.1c-0.1,2-0.1,5-0.1,9c-0.1,4-0.1,11.5-0.1,22.3v3.1c0,0.7,0.3,1,0.8,1H960.7z"/>
		<path d="M1030.8,1317.2c0-19.3-0.1-29.7-0.2-31.3c-0.2-4.9-1.8-7.7-4.9-8.3c-1.6-0.4-3.4-0.6-5.2-0.6c-1.5,0.1-2.2-0.4-2.2-1.5
			c0-0.7,1.1-1.1,3.4-1.1c6.8,0.1,13,0.2,18.6,0.4c4.8-0.1,10.7-0.2,17.5-0.4c1.9,0,2.9,0.4,3,1.1c0,1.1-0.8,1.6-2.3,1.5
			c-1.3,0-2.7,0.1-4.3,0.4c-1.8,0.3-3.1,1.1-3.9,2.4c-0.8,1.3-1.3,3.4-1.4,6.1c-0.1,2-0.1,5-0.1,9c-0.1,4-0.1,11.5-0.1,22.3v26
			c-0.1,14.8,0.1,25.6,0.6,32.4c0.3,2,0.8,3.5,1.5,4.7c0.7,1.4,2.1,2.2,4.2,2.5c2.4,0.4,4.8,0.6,7.3,0.6c1.5,0,2.3,0.4,2.3,1.2
			c-0.1,0.9-1,1.4-2.7,1.4c-10.2-0.2-17.6-0.3-22.3-0.4c-4.8,0.1-10.8,0.2-18,0.4c-1.9,0-2.9-0.5-2.9-1.4c-0.1-0.8,0.6-1.2,2.2-1.2
			c2.2,0,3.9-0.2,5.1-0.6c2.6-0.6,4-3,4.2-7.3c0.5-6.7,0.7-17.5,0.7-32.2V1317.2z"/>
		<path d="M1084.4,1288.9c-1.5-4-3-6.8-4.5-8.3c-1.6-1.4-3.7-2.4-6.3-3c-2.4-0.4-4.2-0.6-5.6-0.6c-1.2,0-1.7-0.4-1.7-1.3
			c0-0.6,0.4-0.9,1.2-1.1c0.7-0.1,1.6-0.1,2.6-0.1c8.2,0.1,15.1,0.2,20.7,0.4c4.1-0.1,9.9-0.2,17.5-0.4c2.1,0,3.2,0.4,3.3,1.3
			c-0.1,1-0.9,1.4-2.2,1.3c-2.4,0-4.2,0.3-5.6,1c-1,0.7-1.5,1.7-1.5,3.1c0,2.1,1.1,5.9,3.3,11.4l24.6,67.1h0.6
			c10.7-27.8,20.1-52.3,28.1-73.6c0.8-2.2,1.2-4,1.3-5.5c0-1.3-0.6-2.2-1.9-2.8c-1.8-0.5-3.7-0.7-5.7-0.7c-1.5,0.1-2.3-0.3-2.4-1.2
			c0-0.9,1.3-1.4,4-1.4c7.6,0.1,12.6,0.2,15,0.4c1.4,0,3.5-0.1,6.1-0.3c2.6-0.1,5-0.1,7.3-0.1c1.9,0,2.9,0.4,3,1.3
			c0,1-0.7,1.4-2.2,1.3c-0.7,0-1.7,0-3,0.1c-1.3,0.2-2.7,0.7-4,1.6c-0.8,0.5-1.8,1.7-3,3.5c-1.2,1.9-2.8,5.2-4.8,9.9
			c-4.7,11.2-10.4,24.5-17.2,40c-9.4,22-15.7,37-19,45c-1.8,4.1-3.1,7-3.9,8.6c-0.8,1.6-1.7,2.4-2.7,2.4c-0.8,0-1.6-0.7-2.2-2.1
			c-0.8-1.2-1.8-3.5-3.1-6.9L1084.4,1288.9z"/>
		<path d="M1204.4,1317.2c0-19.3-0.1-29.7-0.2-31.3c-0.2-4.9-1.8-7.7-4.9-8.3c-1.6-0.4-3.4-0.6-5.2-0.6c-1.5,0.1-2.2-0.4-2.2-1.5
			c0-0.7,1.1-1.1,3.4-1.1c6.8,0.1,13,0.2,18.6,0.4c4.8-0.1,10.7-0.2,17.5-0.4c1.9,0,2.9,0.4,3,1.1c0,1.1-0.8,1.6-2.3,1.5
			c-1.3,0-2.7,0.1-4.3,0.4c-1.8,0.3-3.1,1.1-3.9,2.4c-0.8,1.3-1.3,3.4-1.4,6.1c-0.1,2-0.1,5-0.1,9c-0.1,4-0.1,11.5-0.1,22.3v26
			c-0.1,14.8,0.1,25.6,0.6,32.4c0.3,2,0.8,3.5,1.5,4.7c0.7,1.4,2.1,2.2,4.2,2.5c2.4,0.4,4.8,0.6,7.3,0.6c1.5,0,2.3,0.4,2.3,1.2
			c-0.1,0.9-1,1.4-2.7,1.4c-10.2-0.2-17.6-0.3-22.3-0.4c-4.8,0.1-10.8,0.2-18,0.4c-1.9,0-2.9-0.5-2.9-1.4c-0.1-0.8,0.6-1.2,2.2-1.2
			c2.2,0,3.9-0.2,5.1-0.6c2.6-0.6,4-3,4.2-7.3c0.5-6.7,0.7-17.5,0.7-32.2V1317.2z"/>
		<path d="M1320.9,1388.1c-19.6,0.2-36-5.2-49-16.1c-6.9-6.5-11.6-13.6-14-21.3c-2.6-7.7-3.8-15.1-3.7-22.3
			c-0.1-5.3,1-11.7,3.3-19.2c2.3-7.4,6.7-14.5,13.4-21.3c5.1-4.9,11.3-8.7,18.6-11.4c7.3-2.8,16.1-4.2,26.6-4.2
			c8.1,0,15,0.5,20.7,1.5c2.8,0.3,5.4,0.7,7.7,1.1c2.3,0.6,4.5,1,6.6,1.4c1.4,0.2,2.2,0.8,2.2,1.7c-0.1,0.7-0.3,3.4-0.7,8.1
			c-0.1,6.3-0.3,11.6-0.5,15.9c0,2.3-0.6,3.4-1.7,3.4c-1.1,0-1.6-1.1-1.5-3.2c-0.1-4.9-2-9.4-5.6-13.5c-5.4-5.8-15-8.9-28.9-9.2
			c-12,0.1-20.9,3.2-26.8,9.2c-5.1,4.9-8.5,10.7-10.5,17.2c-1.9,6.7-2.8,13.7-2.7,21c0.4,17.6,5.6,30.7,15.5,39.5
			c9.5,8.8,19.3,13.1,29.5,13.1c12.2,0.3,20.9-2.5,26.2-8.3c2.6-3.3,4.2-6.6,4.9-9.7c0.3-2.1,0.9-3.1,1.8-3c0.9,0.1,1.3,0.8,1.3,2.2
			c0,1.3-0.3,4.1-1,8.4c-0.7,4.5-1.4,8.2-2.2,11.2c-0.2,1.1-0.6,1.9-1.2,2.5c-0.5,0.7-1.3,1.3-2.5,1.8c-3,1.1-6.8,1.9-11.6,2.5
			C1330.3,1387.9,1325.6,1388.2,1320.9,1388.1L1320.9,1388.1z"/>
		<path d="M1397.9,1347.6c-0.7,0-1.1,0.4-1.3,1.2l-7.7,21.2c-1.4,3.9-2.2,7-2.2,9c0,1.3,0.4,2.3,1.3,3.1c0.9,1,2.4,1.4,4.5,1.4h2.2
			c1.5,0,2.2,0.4,2.1,1.2c0,0.9-0.8,1.4-2.4,1.4c-5.2-0.2-10.2-0.3-15.2-0.4c-2.7,0.1-8.3,0.2-16.8,0.4c-1.8,0-2.7-0.5-2.7-1.4
			c0-0.8,0.6-1.2,1.7-1.2c1.5,0,3-0.1,4.4-0.3c3.3-0.5,5.8-1.9,7.6-4.3c1-1.2,1.9-2.6,2.5-4.2c0.7-1.4,1.4-3.1,2-4.8l35.9-92.7
			c1.5-4,2.9-6,4-5.9c1.2,0,2.4,1.6,3.6,4.7c8.9,23.2,20.7,53.4,35.4,90.8c2.8,6.4,5.2,10.6,7.3,12.7c2.1,2,3.9,3.1,5.3,3.4
			c2.2,0.4,4.2,0.6,6,0.6c1.2,0,1.8,0.4,1.8,1.2c0,0.6-0.4,0.9-1.1,1c-1,0.3-2.8,0.4-5.4,0.4c-5.8,0-14.8-0.1-27-0.3
			c-2.7,0-4.2-0.4-4.3-1.1c0-0.8,0.7-1.2,2-1.3c1.3-0.4,1.8-1.5,1.3-3.4l-11.4-31.3c-0.3-0.7-0.8-1-1.5-1H1397.9z M1427.1,1340.2
			c0.7,0,0.9-0.3,0.7-0.9l-12.9-36.5c-0.1-0.8-0.3-1.2-0.7-1.3c-0.4,0.1-0.7,0.5-0.8,1.3l-13.1,36.3c-0.2,0.7-0.1,1,0.6,1H1427.1z"
			/>
	</g>
</g>
<g id="Logo_v2_black_00000121268372677171581630000014639946415636672398_">
	<g>
		<path d="M614.4,853.3h-34.3c-2.2,0-2.9-1.2-2-3.6l36.3-100.4v-89.5L498.5,959.2c-2.3,6.3-4.7,12.1-7.2,17.2
			c-2.3,5.7-5.3,10.6-9,14.9c-6.5,8.4-15.5,13.4-27.1,15.2c-5.1,0.7-10.4,1-15.7,1c-4.1,0-6.2,1.4-6.2,4.3c0,3.3,3.2,5,9.7,5
			c30.5-0.7,50.5-1.2,60-1.5c17.8,0.3,35.8,0.8,54.3,1.5c5.6,0,8.5-1.7,8.5-5c0.3-2.8-2.2-4.2-7.5-4.2h-7.7
			c-7.5,0-12.8-1.7-15.9-5.2c-3-2.9-4.5-6.6-4.5-11.1c0-7.4,2.6-18.1,7.7-32.2l27.4-75.5c0.7-2.7,2.2-4.1,4.7-4.1h44.5V853.3z"/>
		<g>
			<path d="M895.4,1242.1c-4,0-8.7-0.5-14.2-1.5c-3.8-0.7-10.6-3.2-20.4-7.5c-9.8-4.1-22.1-13.5-36.8-28.3
				c-29.2-33.1-66-79.3-110.5-138.6c25.5-21.4,43.4-41.7,53.5-60.9c9.4-18.7,14-37.6,13.7-56.8c-0.3-18.3-4.2-33.9-11.7-46.5
				c-7.5-12.2-15.1-20.7-22.9-25.7c-13.9-9.8-28.9-16.1-44.8-19c-15.9-2.4-32.3-3.6-49-3.6c-2.3,0.1-4.8,0.1-7.1,0.2v24.7
				c7.2,0.3,14.9,1.5,23.1,4.1c8.8,3.1,17.1,8.3,24.9,15.7c8.4,7,15.3,16.9,20.4,29.6c4.8,12.2,7.2,27.8,7.2,46.8
				c-0.3,21.4-3.4,38.5-9.2,51.1c-5.8,12.9-12.8,22.1-20.9,27.8c-4.2,3.3-8.6,5.6-13.2,6.9c-5.5,1.4-13.1,2.1-22.9,2.1
				c-3.2,0-6.3-0.4-9.4-0.6v25.4l14.4,0.3c3.8,0,6.9,1.3,9.2,3.9c4,4.5,10.8,13.7,20.4,27.8c9.4,14.4,19.5,29.4,30.1,44.8
				c26.4,40.2,49.6,66,69.7,77.5c6.5,3.5,13.8,5.9,21.9,7.2c7.8,1.7,18.7,2.5,32.6,2.5h48.5c6.5,0,9.7-1.7,9.7-5
				C901.6,1243.5,899.5,1242.1,895.4,1242.1z"/>
		</g>
	</g>
	
		<linearGradient id="SVGID_00000000915058029220793720000017786369938393861052_" gradientUnits="userSpaceOnUse" x1="344.8231" y1="1306.6875" x2="1655.177" y2="1306.6875">
		<stop  offset="0" style="stop-color:#231F20;stop-opacity:0"/>
		<stop  offset="4.481354e-02" style="stop-color:#231F20;stop-opacity:8.962709e-02"/>
		<stop  offset="0.5" style="stop-color:#231F20"/>
		<stop  offset="0.9552" style="stop-color:#231F20;stop-opacity:8.962709e-02"/>
		<stop  offset="1" style="stop-color:#231F20;stop-opacity:0"/>
	</linearGradient>
	
		<rect x="344.8" y="1305" style="fill:url(#SVGID_00000000915058029220793720000017786369938393861052_);" width="1310.4" height="3.3"/>
	
		<linearGradient id="SVGID_00000005267620502785019880000016329950300909812908_" gradientUnits="userSpaceOnUse" x1="628.5611" y1="591.4527" x2="628.5611" y2="1307.1841">
		<stop  offset="0" style="stop-color:#FFFFFF;stop-opacity:0"/>
		<stop  offset="0" style="stop-color:#AFAEAE;stop-opacity:3.036891e-02"/>
		<stop  offset="0" style="stop-color:#231F20;stop-opacity:8.526514e-02"/>
		<stop  offset="0.5" style="stop-color:#231F20"/>
		<stop  offset="0.9552" style="stop-color:#231F20"/>
		<stop  offset="1" style="stop-color:#231F20"/>
	</linearGradient>
	<polygon style="fill:url(#SVGID_00000005267620502785019880000016329950300909812908_);" points="627.1,1307.2 627.1,592.4 
		630.1,592.4 630.1,1307.2 	"/>
	<g>
		<path d="M986.7,1252.3c-19.6,0.2-36-5.2-49-16.1c-6.9-6.5-11.6-13.6-14-21.3c-2.6-7.7-3.8-15.1-3.7-22.3c-0.1-5.3,1-11.7,3.3-19.2
			c2.3-7.4,6.7-14.5,13.4-21.3c5.1-4.9,11.3-8.7,18.6-11.4c7.3-2.8,16.1-4.2,26.6-4.2c8.1,0,15,0.5,20.7,1.5
			c2.8,0.3,5.4,0.7,7.7,1.1c2.3,0.6,4.5,1,6.6,1.4c1.4,0.2,2.2,0.8,2.2,1.7c-0.1,0.7-0.3,3.4-0.7,8.1c-0.1,6.3-0.3,11.6-0.5,15.9
			c0,2.3-0.6,3.4-1.7,3.4c-1.1,0-1.6-1.1-1.5-3.2c-0.1-4.9-2-9.4-5.6-13.5c-5.4-5.8-15-8.9-28.9-9.2c-12,0.1-20.9,3.2-26.8,9.2
			c-5.1,4.9-8.6,10.7-10.5,17.2c-1.9,6.7-2.8,13.7-2.7,21c0.4,17.6,5.6,30.7,15.5,39.5c9.5,8.8,19.3,13.1,29.5,13.1
			c12.2,0.3,21-2.5,26.2-8.3c2.6-3.3,4.2-6.6,4.9-9.7c0.3-2.1,0.9-3.1,1.8-3c0.9,0.1,1.3,0.8,1.3,2.2c0,1.3-0.3,4.1-1,8.4
			c-0.7,4.5-1.4,8.2-2.2,11.2c-0.2,1.1-0.6,1.9-1.2,2.5c-0.5,0.7-1.3,1.3-2.5,1.8c-3,1.1-6.8,1.9-11.6,2.5
			C996.2,1252.1,991.4,1252.4,986.7,1252.3L986.7,1252.3z"/>
		<path d="M1126.9,1185.8c0.5,0,0.8-0.3,0.9-1v-3.1c0-19.4-0.1-29.8-0.2-31.4c-0.1-2.6-0.5-4.5-1.3-5.8c-0.8-1.4-2.4-2.3-4.8-2.7
			c-1.4-0.3-3.3-0.4-5.6-0.4c-1.6,0.1-2.4-0.3-2.4-1.3c0-0.8,1-1.3,3-1.3c8.7,0.1,15.6,0.2,20.6,0.4c4.9-0.1,10.9-0.2,18-0.4
			c2,0,3,0.4,3,1.3c0,1-0.9,1.4-2.6,1.3c-1.1,0-2.5,0.1-4.1,0.4c-1.8,0.3-3.1,1.1-3.9,2.4c-0.8,1.3-1.3,3.4-1.4,6.1
			c-0.1,2-0.1,5-0.1,9c-0.1,4-0.1,11.5-0.1,22.3v26c-0.1,14.2,0.1,24.8,0.7,31.7c0.2,2.1,0.7,3.8,1.4,5.1c0.7,1.5,2.1,2.4,4.2,2.8
			c2.4,0.4,4.8,0.6,7.3,0.6c1.5,0,2.3,0.4,2.3,1.2c-0.1,0.9-1,1.4-2.9,1.4c-10.1-0.2-17.5-0.3-22.3-0.4c-4.8,0.1-10.8,0.2-17.9,0.4
			c-2,0-3-0.5-3-1.4c-0.1-0.8,0.6-1.2,2.2-1.2c2.2,0,3.9-0.2,5.1-0.6c1.4-0.4,2.4-1.3,3-2.8c0.6-1.3,0.9-3.1,1.1-5.3
			c0.5-6.8,0.8-17.3,0.8-31.5v-13c-0.1-0.6-0.4-0.9-0.9-0.9h-54.6c-0.6,0-0.8,0.3-0.8,0.9v13c-0.1,14.2,0.1,24.8,0.7,31.7
			c0.2,2.1,0.7,3.8,1.5,5.1c0.7,1.5,2,2.4,4.1,2.8c2.4,0.4,4.8,0.6,7.3,0.6c1.5,0,2.3,0.4,2.3,1.2c-0.1,0.9-1,1.4-2.9,1.4
			c-10.1-0.2-17.5-0.3-22.3-0.4c-4.8,0.1-10.8,0.2-18,0.4c-1.9,0-2.9-0.5-2.9-1.4c-0.1-0.8,0.6-1.2,2.2-1.2c2.2,0,3.9-0.2,5.1-0.6
			c1.4-0.4,2.4-1.3,3-2.8c0.6-1.3,1-3.1,1.2-5.3c0.5-6.8,0.7-17.3,0.7-31.5v-26c0-19.3-0.1-29.8-0.2-31.3c-0.1-2.6-0.5-4.5-1.3-5.8
			c-0.8-1.4-2.4-2.3-4.8-2.7c-1.4-0.3-3.3-0.4-5.6-0.4c-1.6,0.1-2.4-0.3-2.4-1.3c0-0.8,1-1.3,3-1.3c8.7,0.1,15.6,0.2,20.6,0.4
			c4.9-0.1,10.9-0.2,18-0.4c2,0,3,0.4,3,1.3c0,1-0.9,1.4-2.6,1.3c-1,0-2.4,0.1-4.1,0.4c-1.8,0.3-3.1,1.1-3.9,2.4
			c-0.8,1.4-1.3,3.4-1.4,6.1c-0.1,2-0.1,5-0.1,9c-0.1,4-0.1,11.5-0.1,22.3v3.1c0,0.7,0.3,1,0.8,1H1126.9z"/>
		<path d="M1197,1181.5c0-19.3-0.1-29.7-0.2-31.3c-0.2-4.9-1.8-7.7-4.9-8.3c-1.6-0.4-3.4-0.6-5.2-0.6c-1.5,0.1-2.2-0.4-2.2-1.5
			c0-0.7,1.1-1.1,3.4-1.1c6.8,0.1,13,0.2,18.6,0.4c4.8-0.1,10.7-0.2,17.5-0.4c1.9,0,2.9,0.4,3,1.1c0,1.1-0.8,1.6-2.3,1.5
			c-1.3,0-2.7,0.1-4.3,0.4c-1.8,0.3-3.1,1.1-3.9,2.4c-0.8,1.3-1.3,3.4-1.4,6.1c-0.1,2-0.1,5-0.1,9c-0.1,4-0.1,11.5-0.1,22.3v26
			c-0.1,14.8,0.1,25.6,0.6,32.4c0.3,2,0.8,3.5,1.5,4.7c0.7,1.4,2.1,2.2,4.2,2.5c2.4,0.4,4.8,0.6,7.3,0.6c1.5,0,2.3,0.4,2.3,1.2
			c-0.1,0.9-1,1.4-2.7,1.4c-10.2-0.2-17.6-0.3-22.3-0.4c-4.8,0.1-10.8,0.2-18,0.4c-1.9,0-2.9-0.5-2.9-1.4c-0.1-0.8,0.6-1.2,2.2-1.2
			c2.2,0,3.9-0.2,5.1-0.6c2.6-0.6,4-3,4.2-7.3c0.5-6.7,0.7-17.5,0.7-32.2V1181.5z"/>
		<path d="M1250.6,1153.2c-1.5-4-3-6.8-4.5-8.3c-1.6-1.4-3.7-2.4-6.3-3c-2.4-0.4-4.2-0.6-5.6-0.6c-1.2,0-1.7-0.4-1.7-1.3
			c0-0.6,0.4-0.9,1.2-1.1c0.7-0.1,1.6-0.1,2.6-0.1c8.2,0.1,15.1,0.2,20.7,0.4c4.1-0.1,9.9-0.2,17.5-0.4c2.1,0,3.2,0.4,3.3,1.3
			c-0.1,1-0.9,1.4-2.2,1.3c-2.4,0-4.2,0.3-5.6,1c-1,0.7-1.5,1.7-1.5,3.1c0,2.1,1.1,5.9,3.3,11.4l24.6,67.1h0.6
			c10.7-27.8,20.1-52.3,28.1-73.6c0.8-2.2,1.2-4,1.3-5.5c0-1.3-0.6-2.2-1.9-2.8c-1.8-0.5-3.7-0.7-5.7-0.7c-1.5,0.1-2.3-0.3-2.4-1.2
			c0-0.9,1.3-1.4,4-1.4c7.6,0.1,12.6,0.2,15,0.4c1.4,0,3.5-0.1,6.1-0.3c2.6-0.1,5-0.1,7.3-0.1c1.9,0,2.9,0.4,3,1.3
			c0,1-0.7,1.4-2.2,1.3c-0.7,0-1.7,0-3,0.1c-1.3,0.2-2.7,0.7-4,1.6c-0.8,0.5-1.8,1.7-3,3.5c-1.2,1.9-2.8,5.2-4.8,9.9
			c-4.7,11.2-10.4,24.5-17.2,40c-9.4,22-15.7,37-19,45c-1.8,4.1-3.1,7-3.9,8.6c-0.8,1.6-1.7,2.4-2.7,2.4c-0.8,0-1.6-0.7-2.2-2.1
			c-0.8-1.2-1.8-3.5-3.1-6.9L1250.6,1153.2z"/>
		<path d="M1370.6,1181.5c0-19.3-0.1-29.7-0.2-31.3c-0.2-4.9-1.8-7.7-4.9-8.3c-1.6-0.4-3.4-0.6-5.2-0.6c-1.5,0.1-2.2-0.4-2.2-1.5
			c0-0.7,1.1-1.1,3.4-1.1c6.8,0.1,13,0.2,18.6,0.4c4.8-0.1,10.7-0.2,17.5-0.4c1.9,0,2.9,0.4,3,1.1c0,1.1-0.8,1.6-2.3,1.5
			c-1.3,0-2.7,0.1-4.3,0.4c-1.8,0.3-3.1,1.1-3.9,2.4c-0.8,1.3-1.3,3.4-1.4,6.1c-0.1,2-0.1,5-0.1,9c-0.1,4-0.1,11.5-0.1,22.3v26
			c-0.1,14.8,0.1,25.6,0.6,32.4c0.3,2,0.8,3.5,1.5,4.7c0.7,1.4,2.1,2.2,4.2,2.5c2.4,0.4,4.8,0.6,7.3,0.6c1.5,0,2.3,0.4,2.3,1.2
			c-0.1,0.9-1,1.4-2.7,1.4c-10.2-0.2-17.6-0.3-22.3-0.4c-4.8,0.1-10.8,0.2-18,0.4c-1.9,0-2.9-0.5-2.9-1.4c-0.1-0.8,0.6-1.2,2.2-1.2
			c2.2,0,3.9-0.2,5.1-0.6c2.6-0.6,4-3,4.2-7.3c0.5-6.7,0.7-17.5,0.7-32.2V1181.5z"/>
		<path d="M1487.1,1252.3c-19.6,0.2-36-5.2-49-16.1c-6.9-6.5-11.6-13.6-14-21.3c-2.6-7.7-3.8-15.1-3.7-22.3
			c-0.1-5.3,1-11.7,3.3-19.2c2.3-7.4,6.7-14.5,13.4-21.3c5.1-4.9,11.3-8.7,18.6-11.4c7.3-2.8,16.1-4.2,26.6-4.2
			c8.1,0,15,0.5,20.7,1.5c2.8,0.3,5.4,0.7,7.7,1.1c2.3,0.6,4.5,1,6.6,1.4c1.4,0.2,2.2,0.8,2.2,1.7c-0.1,0.7-0.3,3.4-0.7,8.1
			c-0.1,6.3-0.3,11.6-0.5,15.9c0,2.3-0.6,3.4-1.7,3.4c-1.1,0-1.6-1.1-1.5-3.2c-0.1-4.9-2-9.4-5.6-13.5c-5.4-5.8-15-8.9-28.9-9.2
			c-12,0.1-20.9,3.2-26.8,9.2c-5.1,4.9-8.5,10.7-10.5,17.2c-1.9,6.7-2.8,13.7-2.7,21c0.4,17.6,5.6,30.7,15.5,39.5
			c9.5,8.8,19.3,13.1,29.5,13.1c12.2,0.3,20.9-2.5,26.2-8.3c2.6-3.3,4.2-6.6,4.9-9.7c0.3-2.1,0.9-3.1,1.8-3c0.9,0.1,1.3,0.8,1.3,2.2
			c0,1.3-0.3,4.1-1,8.4c-0.7,4.5-1.4,8.2-2.2,11.2c-0.2,1.1-0.6,1.9-1.2,2.5c-0.5,0.7-1.3,1.3-2.5,1.8c-3,1.1-6.8,1.9-11.6,2.5
			C1496.5,1252.1,1491.8,1252.4,1487.1,1252.3L1487.1,1252.3z"/>
		<path d="M1564.1,1211.8c-0.7,0-1.1,0.4-1.3,1.2l-7.7,21.2c-1.4,3.9-2.2,7-2.2,9c0,1.3,0.4,2.3,1.3,3.1c0.9,1,2.4,1.4,4.5,1.4h2.2
			c1.5,0,2.2,0.4,2.1,1.2c0,0.9-0.8,1.4-2.4,1.4c-5.2-0.2-10.2-0.3-15.2-0.4c-2.7,0.1-8.3,0.2-16.8,0.4c-1.8,0-2.7-0.5-2.7-1.4
			c0-0.8,0.6-1.2,1.7-1.2c1.5,0,3-0.1,4.4-0.3c3.3-0.5,5.8-1.9,7.6-4.3c1-1.2,1.9-2.6,2.5-4.2c0.7-1.4,1.4-3.1,2-4.8l35.9-92.7
			c1.5-4,2.9-6,4-5.9c1.2,0,2.4,1.6,3.6,4.7c8.9,23.2,20.7,53.4,35.4,90.8c2.8,6.4,5.2,10.6,7.3,12.7c2.1,2,3.9,3.1,5.3,3.4
			c2.2,0.4,4.2,0.6,6,0.6c1.2,0,1.8,0.4,1.8,1.2c0,0.6-0.4,0.9-1.1,1c-1,0.3-2.8,0.4-5.4,0.4c-5.8,0-14.8-0.1-27-0.3
			c-2.7,0-4.2-0.4-4.3-1.1c0-0.8,0.7-1.2,2-1.3c1.3-0.4,1.8-1.5,1.3-3.4l-11.4-31.3c-0.3-0.7-0.8-1-1.5-1H1564.1z M1593.2,1204.5
			c0.7,0,0.9-0.3,0.7-0.9l-12.9-36.5c-0.1-0.8-0.3-1.2-0.7-1.3c-0.4,0.1-0.7,0.5-0.8,1.3l-13.1,36.3c-0.2,0.7-0.1,1,0.6,1H1593.2z"
			/>
	</g>
</g>
</svg>
